<?xml version="1.0" encoding="UTF-8"?>
<svg id="Layer_1" xmlns="http://www.w3.org/2000/svg" version="1.1" viewBox="0 0 1036 738">
  <!-- Generator: Adobe Illustrator 29.0.1, SVG Export Plug-In . SVG Version: 2.1.0 Build 192)  -->
  <defs>
    <style>
      .st0 {
        fill: #c6a1cf;
      }
    </style>
  </defs>
  <path class="st0" d="M440.02,325.71v5.1c-.23,0-.55-.02-.96-.06s-.72-.06-.91-.06c-3.21,0-5.38.94-6.52,2.81s-1.7,6.62-1.7,14.25v12.98c0,7.63.13,13.05.4,16.24.26,3.19.72,5.72,1.36,7.57,1.44,4.5,3.97,7.94,7.6,10.34,3.63,2.4,8.09,3.6,13.38,3.6,4.35,0,8.05-.73,11.11-2.18s5.55-3.67,7.48-6.66c1.28-2,2.2-4.62,2.75-7.85s.82-8.04.82-14.42c0-1.21-.02-3.22-.06-6.04s-.06-5.02-.06-6.6v-5.95c0-7.97-.57-12.98-1.7-15.02s-3.31-3.06-6.52-3.06c-.49,0-.87,0-1.13.03s-.51.03-.74.03v-5.04c3.51.19,6.43.33,8.76.43,2.32.09,4.32.14,5.98.14,1.55,0,3.43-.05,5.64-.14,2.21-.09,5.09-.24,8.64-.43v5.1h-.91c-2.27,0-3.95.26-5.04.77s-1.89,1.41-2.38,2.69c-.72,1.89-1.17,10.11-1.36,24.66,0,2.08-.02,3.68-.06,4.82v3.12c-.08,12.92-1.47,21.8-4.19,26.64-2.72,4.84-6.73,8.58-12.02,11.22s-11.45,3.97-18.48,3.97c-6.46,0-12.2-1.07-17.2-3.2s-8.95-5.17-11.82-9.1c-2.15-2.95-3.68-6.35-4.59-10.2s-1.36-9.6-1.36-17.23c0-2.04.06-5.67.17-10.88.11-5.21.17-9.39.17-12.53,0-6.61-.54-10.72-1.62-12.33s-3.2-2.41-6.38-2.41h-1.36v-5.1c4.27.19,7.74.33,10.4.43,2.66.09,4.96.14,6.89.14,1.78,0,4.01-.05,6.69-.14,2.68-.09,6.29-.24,10.83-.43Z"/>
  <path class="st0" d="M501,401.61c.3.04.6.07.88.09s.73.03,1.33.03c3.1,0,5.19-1.02,6.26-3.06s1.62-7.44,1.62-16.21v-10.2l.23-12.7c.04-2.68.07-5.35.09-7.99.02-2.65.03-5.82.03-9.52,0-4.76-.58-7.84-1.73-9.24s-3.32-2.1-6.49-2.1h-1.19v-4.99c4.04.19,7.39.33,10.03.43,2.65.09,4.95.14,6.91.14,2.8,0,6.27-.09,10.43-.28s6.95-.28,8.39-.28c9.37,0,16.76,1.95,22.16,5.84s8.11,9.18,8.11,15.87c0,4.46-1.35,8.39-4.05,11.79-2.7,3.4-6.75,6.31-12.16,8.73l11.11,15.64c5.29,8.24,9.15,13.41,11.59,15.53s5.04,3.17,7.79,3.17c.15,0,.37-.02.65-.06s.5-.06.65-.06v4.76c-2.3.19-4.31.33-6.01.43-1.7.09-3.19.14-4.48.14-4.61,0-8.22-.51-10.83-1.53s-4.95-2.78-7.03-5.27c-.98-1.17-3.4-4.94-7.26-11.31-3.85-6.37-7.24-11.82-10.15-16.35-2.34.08-4.42.13-6.23.17s-3.57.06-5.27.06v15.08c0,5.78.57,9.42,1.7,10.91,1.13,1.49,3.36,2.24,6.69,2.24h1.59v5.1c-3.1-.19-6.2-.33-9.3-.43s-6.27-.14-9.52-.14c-1.06,0-2.62.03-4.68.09-2.06.06-6.02.22-11.87.48v-4.99ZM526.4,365.84c2,.11,3.7.2,5.1.26s2.57.09,3.51.09c1.17,0,2.42-.03,3.74-.09s2.7-.14,4.14-.26c3.29-2.12,5.7-4.52,7.23-7.23s2.3-5.87,2.3-9.49c0-4.72-1.6-8.55-4.79-11.48-3.19-2.93-7.43-4.39-12.72-4.39-1.62,0-3.11.06-4.45.17s-2.65.28-3.94.51c-.04,4.12-.07,8.43-.09,12.92-.02,4.5-.03,10.83-.03,18.99Z"/>
  <path class="st0" d="M633.41,323.62c6.01,0,11.37.82,16.1,2.47s9.07,4.18,13.04,7.62c4.61,4.01,8.16,8.78,10.66,14.31,2.49,5.54,3.74,11.4,3.74,17.6,0,12.32-4.18,22.58-12.53,30.78-8.35,8.2-18.8,12.3-31.34,12.3-6.54,0-12.45-1.07-17.74-3.2-5.29-2.13-9.98-5.32-14.06-9.55-3.78-3.97-6.66-8.49-8.64-13.57s-2.98-10.48-2.98-16.18c0-6.31,1.24-12.18,3.71-17.6,2.47-5.42,6.07-10.16,10.8-14.2,3.93-3.4,8.46-6.05,13.6-7.94,5.14-1.89,10.35-2.83,15.64-2.83ZM659.42,367.6c0-10.69-2.47-19.29-7.42-25.79s-11.45-9.75-19.5-9.75-13.86,2.89-18.45,8.67c-4.59,5.78-6.89,13.6-6.89,23.47,0,10.77,2.5,19.42,7.51,25.96,5.01,6.54,11.52,9.81,19.53,9.81s13.89-2.89,18.42-8.67c4.53-5.78,6.8-13.68,6.8-23.69Z"/>
  <path class="st0" d="M685.89,401.61c.3.04.6.07.88.09s.73.03,1.33.03c3.1,0,5.19-1.02,6.26-3.06s1.62-7.44,1.62-16.21v-10.2l.23-12.7c.04-2.68.07-5.35.09-7.99s.03-5.82.03-9.52c0-4.76-.58-7.84-1.73-9.24s-3.32-2.1-6.49-2.1h-1.19v-4.99c4.04.19,7.39.33,10.03.43,2.65.09,4.95.14,6.91.14,2.8,0,6.27-.09,10.43-.28s6.95-.28,8.39-.28c9.37,0,16.76,1.95,22.16,5.84s8.11,9.18,8.11,15.87c0,4.46-1.35,8.39-4.05,11.79-2.7,3.4-6.75,6.31-12.16,8.73l11.11,15.64c5.29,8.24,9.15,13.41,11.59,15.53s5.04,3.17,7.79,3.17c.15,0,.37-.02.65-.06s.5-.06.65-.06v4.76c-2.3.19-4.31.33-6.01.43s-3.19.14-4.48.14c-4.61,0-8.22-.51-10.83-1.53s-4.95-2.78-7.03-5.27c-.98-1.17-3.4-4.94-7.25-11.31-3.85-6.37-7.24-11.82-10.15-16.35-2.34.08-4.42.13-6.23.17s-3.57.06-5.27.06v15.08c0,5.78.57,9.42,1.7,10.91,1.13,1.49,3.36,2.24,6.69,2.24h1.59v5.1c-3.1-.19-6.2-.33-9.3-.43s-6.27-.14-9.52-.14c-1.06,0-2.62.03-4.68.09-2.06.06-6.02.22-11.87.48v-4.99ZM711.29,365.84c2,.11,3.7.2,5.1.26s2.57.09,3.51.09c1.17,0,2.42-.03,3.74-.09s2.7-.14,4.14-.26c3.29-2.12,5.7-4.52,7.23-7.23s2.3-5.87,2.3-9.49c0-4.72-1.6-8.55-4.79-11.48-3.19-2.93-7.43-4.39-12.72-4.39-1.62,0-3.11.06-4.45.17s-2.65.28-3.94.51c-.04,4.12-.07,8.43-.09,12.92-.02,4.5-.03,10.83-.03,18.99Z"/>
  <path class="st0" d="M403.46,401.5c-2.12,0-3.81-.43-5.07-1.28s-2.31-2.28-3.15-4.28c-1.96-4.42-5.41-13.31-10.34-26.67-4.93-13.36-10.12-28.01-15.56-43.95h-13.83c-6.54,16.66-12.66,31.76-18.36,45.29-5.71,13.53-9.37,21.76-11,24.71-1.13,2.23-2.51,3.82-4.14,4.76s-3.8,1.42-6.52,1.42v5.1c4.01-.23,7.06-.38,9.15-.45,2.1-.08,3.79-.11,5.07-.11,1.55,0,3.51.04,5.89.11,2.38.08,5.72.23,10.03.45v-5.1h-1.02c-2.57,0-4.41-.43-5.53-1.3s-1.67-2.29-1.67-4.25c0-2.38,1.85-8.09,5.55-17.12l.23-.57,3.06-7.99,12.36-31.34,10.77,31.34,2.83,7.99,4.65,13.72c.42,1.28.69,2.29.82,3s.2,1.34.2,1.87c0,1.74-.53,2.95-1.59,3.63s-3.08,1.02-6.06,1.02h-1.02v5.1c5.03-.23,8.86-.38,11.51-.45,2.65-.08,4.8-.11,6.46-.11s3.89.04,6.46.11c2.57.08,6.25.23,11.05.45v-5.1h-1.25Z"/>
  <path class="st0" d="M863.75,401.5c-2.12,0-3.81-.43-5.07-1.28-1.27-.85-2.31-2.28-3.15-4.28-1.96-4.42-5.41-13.31-10.34-26.67-4.93-13.36-10.12-28.01-15.56-43.95h-13.83c-6.54,16.66-12.66,31.76-18.36,45.29-5.71,13.53-9.37,21.76-11,24.71-1.13,2.23-2.51,3.82-4.14,4.76s-3.8,1.42-6.52,1.42v5.1c4.01-.23,7.06-.38,9.15-.45,2.1-.08,3.79-.11,5.07-.11,1.55,0,3.51.04,5.89.11,2.38.08,5.72.23,10.03.45v-5.1h-1.02c-2.57,0-4.41-.43-5.53-1.3s-1.67-2.29-1.67-4.25c0-2.38,1.85-8.09,5.55-17.12l.23-.57,3.06-7.99,12.36-31.34,10.77,31.34,2.83,7.99,4.65,13.72c.42,1.28.69,2.29.82,3s.2,1.34.2,1.87c0,1.74-.53,2.95-1.59,3.63s-3.08,1.02-6.06,1.02h-1.02v5.1c5.03-.23,8.86-.38,11.51-.45,2.65-.08,4.8-.11,6.46-.11s3.89.04,6.46.11c2.57.08,6.25.23,11.05.45v-5.1h-1.25Z"/>
  <path class="st0" d="M356.96,366.05l1.93,5.94h6.24c.13,0,.19.17.08.25l-5.05,3.67,1.93,5.94c.04.13-.1.23-.21.15l-5.05-3.67-5.05,3.67c-.11.08-.25-.03-.21-.15l1.93-5.94-5.05-3.67c-.11-.08-.05-.25.08-.25h6.24s1.93-5.94,1.93-5.94c.04-.13.22-.13.26,0Z"/>
  <path class="st0" d="M632.64,358.79l1.93,5.94h6.24c.13,0,.19.17.08.25l-5.05,3.67,1.93,5.94c.04.13-.1.23-.21.15l-5.05-3.67-5.05,3.67c-.11.08-.25-.03-.21-.15l1.93-5.94-5.05-3.67c-.11-.08-.05-.25.08-.25h6.24s1.93-5.94,1.93-5.94c.04-.13.22-.13.26,0Z"/>
  <path class="st0" d="M816.44,366.05l1.93,5.94h6.24c.13,0,.19.17.08.25l-5.05,3.67,1.93,5.94c.04.13-.1.23-.21.15l-5.05-3.67-5.05,3.67c-.11.08-.25-.03-.21-.15l1.93-5.94-5.05-3.67c-.11-.08-.05-.25.08-.25h6.24s1.93-5.94,1.93-5.94c.04-.13.22-.13.26,0Z"/>
  <path class="st0" d="M328.77,331.42s0,0,0,0c-6.08,5.31-18.36,9.3-18.66,9.41-4.61,1.61-24.99,7.36-27.72,8.65-4.15,1.96-11.34,7.87-14.07,14.21-2.11,4.9-2.56,9.08-1.85,13.58.2,1.26,1.73,7.17,2.38,8.52.55,1.13,1.87.83,2.03-.45l.26-2.16c.31-2.55,1.91-4.48,3.93-4.73,2.82-.36,6.7-.86,8.82-1.17,3.59-.53,4.99-1.34,4.15-2.49-.4-.55-4.01-1.27-6.07-1.64-.21-.04-.19-.34.02-.35l24.42-1.74c.98-.05,1.47-.47,1.59-.67l.06-.19s.43-1.09-1.99-2.65c-1.93-1.24-6.55-1.86-8.99-2.11-.21-.02-.22-.32,0-.35,4.25-.58,15.78-2.2,18.37-3.09,3.1-1.06,4.46-1.76,6.47-3.42,1.06-.88,3.64-4.49,4.74-6.42.2-.35-.08-.84-.41-.71-2.19.9-7,2.51-10.08,2.75-2.44.19-3.71.09-4.33-.01-.18-.03-.2-.27-.04-.34,1.76-.72,7.68-3.24,9.76-5.11,1.44-1.29,3.72-3.14,5.61-6.72.75-1.43,1.76-3.75,2.35-5.3.78-2.06,1.84-5.58,1.93-5.87,0-.02.01-.03.01-.05.21-.71-.67-1.23-1.21-.73l-1.45,1.36Z"/>
  <path class="st0" d="M125.72,331.42s0,0,0,0c6.08,5.31,18.36,9.3,18.66,9.41,4.61,1.61,24.99,7.36,27.72,8.65,4.15,1.96,11.34,7.87,14.07,14.21,2.11,4.9,2.56,9.08,1.85,13.58-.2,1.26-1.73,7.17-2.38,8.52-.55,1.13-1.87.83-2.03-.45l-.26-2.16c-.31-2.55-1.91-4.48-3.93-4.73-2.82-.36-6.7-.86-8.82-1.17-3.59-.53-4.99-1.34-4.15-2.49.4-.55,4.01-1.27,6.07-1.64.21-.04.19-.34-.02-.35l-24.42-1.74c-.98-.05-1.47-.47-1.59-.67l-.06-.19s-.43-1.09,1.99-2.65c1.93-1.24,6.55-1.86,8.99-2.11.21-.02.22-.32,0-.35-4.25-.58-15.78-2.2-18.37-3.09-3.1-1.06-4.46-1.76-6.47-3.42-1.06-.88-3.64-4.49-4.74-6.42-.2-.35.08-.84.41-.71,2.19.9,7,2.51,10.08,2.75,2.44.19,3.71.09,4.33-.01.18-.03.2-.27.04-.34-1.76-.72-7.68-3.24-9.76-5.11-1.44-1.29-3.72-3.14-5.61-6.72-.75-1.43-1.76-3.75-2.35-5.3-.78-2.06-1.84-5.58-1.93-5.87,0-.02-.01-.03-.01-.05-.21-.71.67-1.23,1.21-.73l1.45,1.36Z"/>
  <path class="st0" d="M228.18,329.65l8.04,24.73c.13.4.51.68.93.68h26.01c.95,0,1.34,1.21.57,1.77l-21.04,15.29c-.34.25-.49.69-.36,1.09l8.04,24.73c.29.9-.74,1.65-1.5,1.09l-21.04-15.29c-.34-.25-.81-.25-1.15,0l-21.04,15.29c-.77.56-1.8-.19-1.5-1.09l8.04-24.73c.13-.4-.01-.84-.36-1.09l-21.04-15.29c-.77-.56-.37-1.77.57-1.77h26.01c.42,0,.8-.27.93-.68l8.04-24.73c.29-.9,1.57-.9,1.86,0Z"/>
</svg>